<svg width="36" height="36" viewBox="0 0 36 36" fill="none" xmlns="http://www.w3.org/2000/svg">
<path d="M19.542 3.00136C20.6366 2.99716 21.7312 3.00816 22.8255 3.03436L23.1165 3.04486C23.4525 3.05686 23.784 3.07186 24.1845 3.08986C25.7805 3.16486 26.8695 3.41686 27.825 3.78736C28.815 4.16836 29.649 4.68436 30.483 5.51836C31.2456 6.26777 31.8358 7.17428 32.2125 8.17486C32.583 9.13036 32.835 10.2209 32.91 11.8169C32.928 12.2159 32.943 12.5489 32.955 12.8849L32.964 13.1759C32.9907 14.2696 33.0022 15.3638 32.9985 16.4579L33 17.5769V19.5419C33.0037 20.6365 32.9922 21.7311 32.9655 22.8254L32.9565 23.1164C32.9445 23.4524 32.9295 23.7839 32.9115 24.1844C32.8365 25.7804 32.5815 26.8694 32.2125 27.8249C31.837 28.8265 31.2467 29.7338 30.483 30.4829C29.733 31.2453 28.826 31.8355 27.825 32.2124C26.8695 32.5829 25.7805 32.8349 24.1845 32.9099C23.784 32.9279 23.4525 32.9429 23.1165 32.9549L22.8255 32.9639C21.7312 32.9905 20.6366 33.002 19.542 32.9984L18.423 32.9999H16.4595C15.3649 33.0036 14.2703 32.9921 13.176 32.9654L12.885 32.9564C12.5289 32.9435 12.1729 32.9284 11.817 32.9114C10.221 32.8364 9.13201 32.5814 8.17501 32.2124C7.17404 31.8364 6.26737 31.2461 5.51851 30.4829C4.75508 29.7333 4.16435 28.8262 3.78751 27.8249C3.41701 26.8694 3.16501 25.7804 3.09001 24.1844C3.07331 23.8284 3.05831 23.4724 3.04501 23.1164L3.03751 22.8254C3.00986 21.7311 2.99736 20.6365 3.00001 19.5419V16.4579C2.99582 15.3638 3.00683 14.2697 3.03301 13.1759L3.04351 12.8849C3.05551 12.5489 3.07051 12.2159 3.08851 11.8169C3.16351 10.2194 3.41551 9.13186 3.78601 8.17486C4.16307 7.17379 4.75496 6.26752 5.52001 5.51986C6.26835 4.75599 7.17445 4.16472 8.17501 3.78736C9.13201 3.41686 10.2195 3.16486 11.817 3.08986L12.885 3.04486L13.176 3.03736C14.2698 3.00972 15.3639 2.99722 16.458 2.99986L19.542 3.00136ZM18 10.5014C17.0063 10.4873 16.0196 10.6709 15.0975 11.0415C14.1753 11.412 13.336 11.9622 12.6283 12.6599C11.9206 13.3577 11.3586 14.1892 10.975 15.106C10.5915 16.0228 10.3939 17.0068 10.3939 18.0006C10.3939 18.9944 10.5915 19.9784 10.975 20.8952C11.3586 21.8121 11.9206 22.6435 12.6283 23.3413C13.336 24.039 14.1753 24.5892 15.0975 24.9598C16.0196 25.3303 17.0063 25.5139 18 25.4999C19.9891 25.4999 21.8968 24.7097 23.3033 23.3032C24.7098 21.8966 25.5 19.989 25.5 17.9999C25.5 16.0107 24.7098 14.1031 23.3033 12.6966C21.8968 11.29 19.9891 10.5014 18 10.5014ZM18 13.5014C18.5978 13.4903 19.1917 13.5986 19.7472 13.8197C20.3027 14.0408 20.8085 14.3704 21.2352 14.7892C21.6618 15.208 22.0008 15.7076 22.2322 16.2589C22.4636 16.8101 22.5828 17.402 22.5829 17.9998C22.583 18.5977 22.464 19.1896 22.2328 19.7409C22.0015 20.2923 21.6628 20.792 21.2362 21.211C20.8097 21.6299 20.304 21.9597 19.7486 22.181C19.1932 22.4023 18.5993 22.5107 18.0015 22.4999C16.808 22.4999 15.6634 22.0258 14.8195 21.1818C13.9756 20.3379 13.5015 19.1933 13.5015 17.9999C13.5015 16.8064 13.9756 15.6618 14.8195 14.8179C15.6634 13.974 16.808 13.4999 18.0015 13.4999L18 13.5014ZM25.875 8.25136C25.3911 8.27073 24.9335 8.47658 24.5979 8.82581C24.2624 9.17505 24.075 9.64056 24.075 10.1249C24.075 10.6092 24.2624 11.0747 24.5979 11.4239C24.9335 11.7731 25.3911 11.979 25.875 11.9984C26.3723 11.9984 26.8492 11.8008 27.2008 11.4492C27.5525 11.0976 27.75 10.6206 27.75 10.1234C27.75 9.62608 27.5525 9.14916 27.2008 8.79753C26.8492 8.4459 26.3723 8.24836 25.875 8.24836V8.25136Z" fill="black"/>
</svg>
