<svg width="40" height="40" viewBox="0 0 40 40" fill="none" xmlns="http://www.w3.org/2000/svg">
<g clip-path="url(#clip0_15_299)">
<path fill-rule="evenodd" clip-rule="evenodd" d="M30 5C31.3261 5 32.5979 5.52678 33.5355 6.46447C34.4732 7.40215 35 8.67392 35 10V30C35 31.3261 34.4732 32.5979 33.5355 33.5355C32.5979 34.4732 31.3261 35 30 35H10C8.67392 35 7.40215 34.4732 6.46447 33.5355C5.52678 32.5979 5 31.3261 5 30V10C5 8.67392 5.52678 7.40215 6.46447 6.46447C7.40215 5.52678 8.67392 5 10 5H30ZM13.3333 16.6667C12.8913 16.6667 12.4674 16.8423 12.1548 17.1548C11.8423 17.4674 11.6667 17.8913 11.6667 18.3333V26.6667C11.6667 27.1087 11.8423 27.5326 12.1548 27.8452C12.4674 28.1577 12.8913 28.3333 13.3333 28.3333C13.7754 28.3333 14.1993 28.1577 14.5118 27.8452C14.8244 27.5326 15 27.1087 15 26.6667V18.3333C15 17.8913 14.8244 17.4674 14.5118 17.1548C14.1993 16.8423 13.7754 16.6667 13.3333 16.6667ZM18.3333 15C17.8913 15 17.4674 15.1756 17.1548 15.4882C16.8423 15.8007 16.6667 16.2246 16.6667 16.6667V26.6667C16.6667 27.1087 16.8423 27.5326 17.1548 27.8452C17.4674 28.1577 17.8913 28.3333 18.3333 28.3333C18.7754 28.3333 19.1993 28.1577 19.5118 27.8452C19.8244 27.5326 20 27.1087 20 26.6667V20.5667C20.6502 19.8594 21.441 19.2957 22.3217 18.9117C22.8767 18.675 23.7117 18.5783 24.2917 18.7617C24.4841 18.8105 24.6554 18.9204 24.78 19.075C24.8667 19.1917 25 19.4517 25 20V26.6667C25 27.1087 25.1756 27.5326 25.4882 27.8452C25.8007 28.1577 26.2246 28.3333 26.6667 28.3333C27.1087 28.3333 27.5326 28.1577 27.8452 27.8452C28.1577 27.5326 28.3333 27.1087 28.3333 26.6667V20C28.3333 18.8833 28.05 17.89 27.46 17.0933C26.9171 16.3709 26.1573 15.8412 25.2917 15.5817C23.7883 15.11 22.1233 15.3717 21.0117 15.8483C20.6555 16.0008 20.3087 16.1744 19.9733 16.3683C19.9035 15.9843 19.701 15.637 19.4013 15.3869C19.1016 15.1369 18.7237 14.9999 18.3333 15ZM13.3333 11.6667C12.8913 11.6667 12.4674 11.8423 12.1548 12.1548C11.8423 12.4674 11.6667 12.8913 11.6667 13.3333C11.6667 13.7754 11.8423 14.1993 12.1548 14.5118C12.4674 14.8244 12.8913 15 13.3333 15C13.7754 15 14.1993 14.8244 14.5118 14.5118C14.8244 14.1993 15 13.7754 15 13.3333C15 12.8913 14.8244 12.4674 14.5118 12.1548C14.1993 11.8423 13.7754 11.6667 13.3333 11.6667Z" fill="black"/>
</g>
<defs>
<clipPath id="clip0_15_299">
<rect width="40" height="40" fill="white"/>
</clipPath>
</defs>
</svg>
