<svg width="20" height="20" viewBox="0 0 20 20" fill="none" xmlns="http://www.w3.org/2000/svg">
<g clip-path="url(#clip0_15_290)">
<path d="M4.56762 1.65988C4.49382 1.56496 4.40068 1.48682 4.29437 1.43066C4.18806 1.3745 4.07101 1.34161 3.95101 1.33416C3.83101 1.32671 3.7108 1.34488 3.59836 1.38746C3.48592 1.43004 3.38383 1.49606 3.29887 1.58113L2.00637 2.87488C1.40262 3.47988 1.18012 4.33613 1.44387 5.08738C2.53854 8.19687 4.31923 11.02 6.65387 13.3474C8.98127 15.682 11.8044 17.4627 14.9139 18.5574C15.6651 18.8211 16.5214 18.5986 17.1264 17.9949L18.4189 16.7024C18.5039 16.6174 18.57 16.5153 18.6125 16.4029C18.6551 16.2904 18.6733 16.1702 18.6658 16.0502C18.6584 15.9302 18.6255 15.8132 18.5693 15.7069C18.5132 15.6006 18.435 15.5074 18.3401 15.4336L15.4564 13.1911C15.355 13.1125 15.237 13.0579 15.1114 13.0315C14.9858 13.005 14.8559 13.0075 14.7314 13.0386L11.9939 13.7224C11.6285 13.8137 11.2456 13.8089 10.8827 13.7083C10.5197 13.6078 10.1889 13.415 9.92262 13.1486L6.85262 10.0774C6.58608 9.81118 6.39302 9.48048 6.29226 9.11751C6.19149 8.75453 6.18645 8.37164 6.27762 8.00613L6.96262 5.26863C6.99375 5.14413 6.9962 5.01418 6.96978 4.88858C6.94337 4.76299 6.88877 4.64504 6.81012 4.54363L4.56762 1.65988ZM2.35512 0.63863C2.57386 0.419817 2.83665 0.250043 3.12604 0.140582C3.41543 0.0311206 3.72479 -0.0155236 4.03359 0.00374676C4.34239 0.0230171 4.64356 0.107761 4.91709 0.252351C5.19063 0.396942 5.43027 0.59807 5.62012 0.842381L7.86262 3.72488C8.27387 4.25363 8.41887 4.94238 8.25637 5.59238L7.57262 8.32988C7.53726 8.47167 7.53917 8.62019 7.57816 8.76102C7.61715 8.90185 7.69188 9.03021 7.79512 9.13363L10.8664 12.2049C10.9699 12.3083 11.0985 12.3832 11.2396 12.4222C11.3806 12.4612 11.5294 12.463 11.6714 12.4274L14.4076 11.7436C14.7284 11.6634 15.0632 11.6572 15.3867 11.7254C15.7102 11.7936 16.014 11.9345 16.2751 12.1374L19.1576 14.3799C20.1939 15.1861 20.2889 16.7174 19.3614 17.6436L18.0689 18.9361C17.1439 19.8611 15.7614 20.2674 14.4726 19.8136C11.1741 18.653 8.17921 16.7647 5.71012 14.2886C3.23423 11.8199 1.34588 8.82546 0.185116 5.52738C-0.267384 4.23988 0.138866 2.85613 1.06387 1.93113L2.35637 0.63863H2.35512Z" fill="black"/>
</g>
<defs>
<clipPath id="clip0_15_290">
<rect width="20" height="20" fill="white"/>
</clipPath>
</defs>
</svg>
